# xmcd
#
# Track frame offsets:
# 150
# 16612
# 32008
# 47177
# 61523
# 82128
# 93670
# 110435
# 123496
# 134284
# 148655
#
# Disc length: 2123 seconds
#
#
# Revision: 2
# Processed by: cddbd v1.5.1PL2 Copyright (c) Steve Scherf et al.
# Submitted via: FreeRIP 2.944 
#
DISCID=9008490b
DTITLE=Kershaw  Sammy - Feelin' Good Train
DYEAR=1994
DGENRE=Country
TTITLE0=Feelin' Good Train
TTITLE1=Third Rate Romance
TTITLE2=If You Ever Come This Way Again
TTITLE3=National Working Woman's Holiday
TTITLE4=Southbound
TTITLE5=Better Call A Preacher
TTITLE6=Paradise From Nine To One
TTITLE7=Too Far Gone To Leave
TTITLE8=If Your Gonna Walk, I'm Gonna Crawl
TTITLE9=The Heart That Time Forgot
TTITLE10=Never Bit A Bullet Like This
EXTD=Track 11 with George Jones
EXTT0=
EXTT1=
EXTT2=
EXTT3=
EXTT4=
EXTT5=
EXTT6=
EXTT7=
EXTT8=
EXTT9=
EXTT10=
PLAYORDER=
